<svg width="500" height="500" viewBox="0 0 500 500" fill="none" xmlns="http://www.w3.org/2000/svg">
<path d="M414.8 347.61H441.28V336.42H414.8V347.61Z" fill="#EBEBEB"/>
<path d="M429.57 361.72H456.05V350.53H429.57V361.72Z" fill="#EBEBEB"/>
<path d="M400.02 361.72H426.5V350.53H400.02V361.72Z" fill="#EBEBEB"/>
<path d="M58.72 361.72H85.2V350.53H58.72V361.72Z" fill="#EBEBEB"/>
<path d="M58.72 59.76H85.2V48.57H58.72V59.76Z" fill="#EBEBEB"/>
<path d="M43.95 73.8701H70.43V62.6801H43.95V73.8701Z" fill="#EBEBEB"/>
<path d="M429.57 59.77H456.05V48.58H429.57V59.77Z" fill="#EBEBEB"/>
<path d="M383.08 181.73H356.6V192.92H383.08V181.73Z" fill="#EBEBEB"/>
<path d="M368.31 167.62H341.83V178.81H368.31V167.62Z" fill="#EBEBEB"/>
<path d="M68.53 77.6501H244.25V323.05H68.53V77.6501ZM239 82.8601H73.74V317.86H239V82.8601Z" fill="#EBEBEB"/>
<path d="M158.99 84.23H153.78V320.44H158.99V84.23Z" fill="#EBEBEB"/>
<path d="M63.8 95.45L248.98 95.45V88.19L63.8 88.19V95.45Z" fill="#EBEBEB"/>
<path d="M63.8 103.62L248.98 103.62V96.3601L63.8 96.3601V103.62Z" fill="#EBEBEB"/>
<path d="M63.8 111.79L248.98 111.79V104.53L63.8 104.53V111.79Z" fill="#EBEBEB"/>
<path d="M63.8 119.95L248.98 119.95V112.69L63.8 112.69V119.95Z" fill="#EBEBEB"/>
<path d="M63.8 128.13L248.98 128.13V120.87L63.8 120.87V128.13Z" fill="#EBEBEB"/>
<path d="M63.8 136.3L248.98 136.3V129.04L63.8 129.04V136.3Z" fill="#EBEBEB"/>
<path d="M63.8 144.46L248.98 144.46V137.2L63.8 137.2V144.46Z" fill="#EBEBEB"/>
<path d="M63.8 152.63L248.98 152.63V145.37L63.8 145.37V152.63Z" fill="#EBEBEB"/>
<path d="M63.8 160.8L248.98 160.8V153.54L63.8 153.54V160.8Z" fill="#EBEBEB"/>
<path d="M80.58 86.72H79.28V228.01H80.58V86.72Z" fill="#263238"/>
<path d="M77.62 234.08H82.25L81.09 227.43H78.78L77.62 234.08Z" fill="#263238"/>
<path d="M75.89 86.72H74.59V263.65H75.89V86.72Z" fill="#263238"/>
<path d="M72.92 268.54H77.55L76.39 261.89H74.08L72.92 268.54Z" fill="#263238"/>
<path d="M55.7001 91.8201L257.07 91.8201V76.6301L55.7001 76.6301V91.8201Z" fill="#DBDBDB"/>
<path d="M426.213 146.334C443.958 135.548 449.601 112.42 438.815 94.6743C428.03 76.9288 404.902 71.2864 387.156 82.0715C369.411 92.8567 363.768 115.985 374.553 133.731C385.339 151.476 408.467 157.119 426.213 146.334Z" fill="#EBEBEB"/>
<path d="M429.248 144.3C445.387 132.801 449.148 110.397 437.649 94.2585C426.15 78.1199 403.746 74.3587 387.607 85.8574C371.469 97.3562 367.708 119.761 379.206 135.899C390.705 152.038 413.109 155.799 429.248 144.3Z" fill="#DBDBDB"/>
<path d="M427.94 142.445C443.054 131.669 446.57 110.68 435.793 95.5666C425.017 80.4529 404.029 76.9369 388.915 87.7134C373.801 98.49 370.285 119.478 381.062 134.592C391.838 149.706 412.826 153.222 427.94 142.445Z" fill="white"/>
<path opacity="0.5" d="M441.27 107.94C425.96 117.21 400.81 132.42 386.75 140.76C382.774 137.408 379.629 133.181 377.56 128.41L424.06 85.3101C428.405 87.5998 432.196 90.8116 435.169 94.7207C438.142 98.6298 440.224 103.142 441.27 107.94Z" fill="#EBEBEB"/>
<path opacity="0.5" d="M442 116.24C441.884 119.98 441.134 123.672 439.78 127.16L397.86 147C396.033 146.397 394.263 145.634 392.57 144.72C405.23 137.4 428.37 124.08 442 116.24Z" fill="#EBEBEB"/>
<path d="M408.74 83.9001H408.09V88.9901H408.74V83.9001Z" fill="#C7C7C7"/>
<path d="M393.101 87.8916L392.539 88.2166L395.084 92.6246L395.646 92.2996L393.101 87.8916Z" fill="#C7C7C7"/>
<path d="M381.567 99.1946L381.242 99.7576L385.651 102.303L385.976 101.74L381.567 99.1946Z" fill="#C7C7C7"/>
<path d="M382.34 114.74H377.25V115.39H382.34V114.74Z" fill="#C7C7C7"/>
<path d="M385.665 127.795L381.257 130.342L381.583 130.904L385.99 128.358L385.665 127.795Z" fill="#C7C7C7"/>
<path d="M395.106 137.505L392.562 141.914L393.126 142.238L395.669 137.829L395.106 137.505Z" fill="#C7C7C7"/>
<path d="M408.74 141.15H408.09V146.24H408.74V141.15Z" fill="#C7C7C7"/>
<path d="M421.727 137.479L421.164 137.804L423.709 142.212L424.272 141.887L421.727 137.479Z" fill="#C7C7C7"/>
<path d="M431.177 127.844L430.852 128.407L435.26 130.953L435.585 130.39L431.177 127.844Z" fill="#C7C7C7"/>
<path d="M439.58 114.74H434.49V115.39H439.58V114.74Z" fill="#C7C7C7"/>
<path d="M435.25 99.2108L430.843 101.757L431.168 102.32L435.575 99.7736L435.25 99.2108Z" fill="#C7C7C7"/>
<path d="M423.725 87.9285L421.182 92.3379L421.745 92.6626L424.288 88.2532L423.725 87.9285Z" fill="#C7C7C7"/>
<path d="M408.9 86.2002L410.01 117.34L406.82 117.3L408.04 86.1902L408.9 86.2002Z" fill="#C7C7C7"/>
<path d="M428.3 104.21L407.35 117.58L405.83 114.78L427.88 103.45L428.3 104.21Z" fill="#A6A6A6"/>
<path d="M409.5 115.07C409.5 115.286 409.436 115.497 409.316 115.677C409.195 115.856 409.025 115.996 408.825 116.078C408.625 116.16 408.405 116.181 408.194 116.138C407.982 116.095 407.788 115.991 407.636 115.837C407.484 115.684 407.381 115.489 407.34 115.276C407.299 115.064 407.322 114.845 407.406 114.646C407.49 114.447 407.631 114.277 407.812 114.159C407.992 114.04 408.204 113.978 408.42 113.98C408.563 113.98 408.704 114.008 408.836 114.063C408.967 114.118 409.087 114.199 409.187 114.3C409.288 114.401 409.367 114.521 409.421 114.654C409.474 114.786 409.501 114.927 409.5 115.07Z" fill="#C7C7C7"/>
<path d="M445.13 314.47C440.8 310.24 435.22 305.12 428.61 306.94C422.39 308.66 420.01 315.45 418.89 321.11C417.46 328.4 416.34 335.76 415.18 343.11C414.02 350.46 412.92 357.95 411.85 365.37C411.25 369.557 410.657 373.75 410.07 377.95C409.77 380.037 409.477 382.133 409.19 384.24C408.91 386.24 408.56 388.35 408.45 390.42C408.45 391.08 409.45 391.18 409.6 390.55C410.4 387.05 410.73 383.42 411.24 379.87C411.75 376.32 412.24 372.73 412.8 369.16C413.8 362.07 414.91 354.99 415.97 347.9C417.03 340.81 418.15 333.73 419.28 326.65C420.28 320.65 420.69 313.19 426.01 309.23C428.93 307.06 432.66 307.04 435.96 308.3C439.47 309.64 442.26 312.14 444.96 314.62C444.98 314.642 445.008 314.656 445.038 314.658C445.068 314.66 445.098 314.65 445.12 314.63C445.143 314.61 445.156 314.582 445.158 314.552C445.16 314.522 445.15 314.492 445.13 314.47Z" fill="#263238"/>
<path d="M439.21 310.14C439.21 310.14 430.37 306.96 426.01 313.41C421.65 319.86 426.86 336.27 467.1 345.52C465.92 332.942 462.649 320.65 457.42 309.15C448.79 290.34 433.42 297.46 439.21 310.14Z" fill="#6F972D"/>
<path d="M464.79 342.84C464.189 341.715 463.521 340.626 462.79 339.58L460.79 336.48L459.21 334.17C459.21 333.99 459.26 333.79 459.29 333.6C459.29 333.25 459.38 332.9 459.42 332.55C459.52 331.8 459.63 331.05 459.74 330.29C459.85 329.53 459.98 328.8 460.12 328.05C460.215 327.244 460.392 326.45 460.65 325.68C460.7 325.56 460.49 325.5 460.47 325.68C460.385 326.132 460.265 326.577 460.11 327.01L459.84 328.01C459.65 328.77 459.46 329.54 459.29 330.31C459.12 331.08 459 331.73 458.88 332.44C458.82 332.79 458.77 333.13 458.72 333.44C458 332.44 457.27 331.44 456.52 330.44C454.38 327.62 452.12 324.91 449.78 322.27C449.78 322.27 449.78 322.27 449.78 322.2C449.99 317.97 449.89 313.78 450.78 309.62C450.78 309.51 450.64 309.45 450.61 309.56C449.73 313.47 448.86 317.56 449.11 321.56C448.27 320.62 447.42 319.69 446.56 318.77C444.56 316.67 442.61 314.59 440.56 312.56C440.48 312.48 440.35 312.56 440.43 312.68C443.82 316.33 447.04 320.14 450.17 324.01C447.717 323.97 445.264 324.06 442.82 324.28C440.09 324.48 437.38 324.83 434.67 325.2C434.646 325.2 434.623 325.21 434.606 325.226C434.59 325.243 434.58 325.266 434.58 325.29C434.58 325.314 434.59 325.337 434.606 325.354C434.623 325.371 434.646 325.38 434.67 325.38C437.369 324.997 440.086 324.753 442.81 324.65C445.44 324.54 448.05 324.65 450.67 324.65C452.36 326.76 454.04 328.87 455.67 331.01H455.3C454.68 331.01 454.07 331.01 453.45 331.01C452.23 331.01 451 331.12 449.78 331.22C447.281 331.42 444.799 331.791 442.35 332.33C442.326 332.33 442.303 332.34 442.286 332.356C442.27 332.373 442.26 332.396 442.26 332.42C442.26 332.444 442.27 332.467 442.286 332.484C442.303 332.501 442.326 332.51 442.35 332.51C444.82 332.23 447.3 332 449.79 331.91C450.97 331.91 452.16 331.91 453.35 331.91H455.2C455.536 331.956 455.878 331.925 456.2 331.82C457.28 333.23 458.37 334.63 459.44 336.04C460.29 337.17 461.14 338.3 461.96 339.45C462.78 340.6 463.57 341.89 464.51 342.98C464.529 343.017 464.561 343.045 464.601 343.059C464.64 343.072 464.683 343.069 464.72 343.05C464.757 343.031 464.785 342.999 464.799 342.96C464.812 342.92 464.809 342.877 464.79 342.84Z" fill="#263238"/>
<path d="M443.06 319.28C441.634 319.098 440.196 319.032 438.76 319.08C437.32 319.08 435.88 319.08 434.45 319.17C434.426 319.17 434.403 319.179 434.386 319.196C434.369 319.213 434.36 319.236 434.36 319.26C434.36 319.284 434.369 319.307 434.386 319.324C434.403 319.34 434.426 319.35 434.45 319.35C435.9 319.24 437.36 319.22 438.82 319.24C440.28 319.26 441.64 319.39 443.04 319.36L443.06 319.28Z" fill="#263238"/>
<path d="M455.69 322.53C455.85 321.15 456.03 319.77 456.32 318.42C456.32 318.396 456.311 318.373 456.294 318.356C456.277 318.34 456.254 318.33 456.23 318.33C456.206 318.33 456.183 318.34 456.166 318.356C456.149 318.373 456.14 318.396 456.14 318.42C455.94 319.78 455.67 321.12 455.47 322.47C455.37 323.137 455.28 323.803 455.2 324.47C455.079 325.103 455.022 325.746 455.03 326.39C455.03 326.51 455.24 326.52 455.27 326.39C455.39 325.76 455.461 325.121 455.48 324.48C455.54 323.83 455.61 323.18 455.69 322.53Z" fill="#263238"/>
<path d="M453 307.3C452.65 308.64 452.3 309.99 452 311.35C451.88 312.04 451.77 312.74 451.68 313.43C451.557 314.089 451.51 314.76 451.54 315.43C451.54 315.43 451.63 315.43 451.65 315.43C451.807 314.796 451.914 314.151 451.97 313.5C452.057 312.833 452.157 312.167 452.27 311.5C452.52 310.1 452.77 308.71 453.12 307.33C453.24 307.25 453.07 307.19 453 307.3Z" fill="#263238"/>
<path d="M400.64 388.92C400.42 386.38 400.17 383.85 399.91 381.32C399.377 376.313 398.77 371.313 398.09 366.32C397.42 361.32 396.78 356.32 395.98 351.39C395.688 349.086 395.175 346.816 394.45 344.61C394.189 343.663 393.714 342.788 393.062 342.053C392.411 341.318 391.599 340.742 390.69 340.37C385.96 338.73 382.76 343.64 380.85 347.12C380.79 347.22 380.95 347.3 381.01 347.2C382.16 345.56 385.32 340.94 388.91 341.15C391.33 341.3 393.26 343.01 394.42 349.04C397.31 364.04 399.92 394.52 400.22 396.51C400.38 397.57 401.13 397.51 401.13 396.39C401.15 393.89 400.86 391.4 400.64 388.92Z" fill="#263238"/>
<path d="M382.13 345.24C382.13 345.24 386.27 330.63 377.13 337.93C361.9 350.09 361.36 376.55 361.36 376.55C361.36 376.55 388.43 360.83 391.8 350.46C396.8 335 382.13 345.24 382.13 345.24Z" fill="#6F972D"/>
<path d="M387.25 352.41C385.13 352.84 382.97 353.12 380.83 353.41L377.78 353.84C377.1 353.93 376.4 354 375.71 354.08C377.71 351.31 379.76 348.54 381.71 345.71C381.79 345.6 381.62 345.48 381.53 345.57C379.934 347.23 378.425 348.973 377.01 350.79L375.81 347.4C375.35 346.09 374.81 344.79 374.52 343.4C374.52 343.29 374.32 343.34 374.35 343.46C374.72 344.8 374.98 346.16 375.35 347.46C375.72 348.76 376.09 350.04 376.55 351.3C375.55 352.59 374.6 353.91 373.68 355.24C373.21 353.92 372.68 352.64 372.23 351.3C372.222 351.276 372.205 351.256 372.182 351.245C372.16 351.234 372.134 351.232 372.11 351.24C372.086 351.248 372.066 351.265 372.055 351.287C372.044 351.31 372.042 351.336 372.05 351.36C372.54 352.84 372.8 354.36 373.26 355.87C372.63 356.78 372.01 357.69 371.42 358.6C370.33 360.29 369.3 362.01 368.29 363.75C368.211 363.78 368.145 363.836 368.101 363.909C368.058 363.981 368.04 364.066 368.05 364.15C366.34 367.15 364.71 370.15 363.11 373.15C363.098 373.171 363.095 373.196 363.102 373.22C363.108 373.243 363.124 373.263 363.145 373.275C363.166 373.287 363.191 373.29 363.215 373.283C363.238 373.277 363.258 373.261 363.27 373.24C364.88 370.24 366.66 367.34 368.52 364.48C368.811 364.395 369.109 364.338 369.41 364.31L370.34 364.11C371.04 363.96 371.73 363.78 372.43 363.6C373.8 363.26 375.16 362.94 376.56 362.7C376.67 362.7 376.62 362.5 376.5 362.52C374.86 362.84 373.22 363.02 371.56 363.21C370.78 363.3 370 363.4 369.23 363.53H369.11C370.11 362.05 371.11 360.58 372.11 359.13C373.11 357.68 374.11 356.29 375.11 354.89C376.05 354.75 376.98 354.51 377.91 354.33L381.06 353.72C383.15 353.3 385.24 352.83 387.34 352.48C387.42 352.57 387.37 352.39 387.25 352.41Z" fill="#263238"/>
<path d="M371 353.85L370.64 352.69C370.384 351.887 370.177 351.068 370.02 350.24C370.02 350.12 369.82 350.18 369.84 350.29C370.02 351.12 370.21 351.94 370.4 352.76C370.571 353.588 370.808 354.4 371.11 355.19C371.19 355.38 371.48 355.3 371.42 355.1C371.28 354.68 371.12 354.27 371 353.85Z" fill="#263238"/>
<path d="M390 349C388.77 349.18 387.52 349.27 386.28 349.38C385.04 349.49 383.8 349.66 382.56 349.85C382.49 349.85 382.49 349.96 382.56 349.96C383.81 349.87 385.04 349.77 386.28 349.61C387.52 349.45 388.76 349.26 390.01 349.18C390.14 349.2 390.13 349 390 349Z" fill="#263238"/>
<path d="M420.56 370.42C420.08 359.66 419.4 348.92 418.32 338.2C417.78 332.86 417.18 327.53 416.43 322.2C415.756 316.979 414.724 311.81 413.34 306.73C412.24 302.86 410.78 298.97 408.19 295.83C406.986 294.251 405.399 293.005 403.579 292.211C401.759 291.416 399.767 291.099 397.79 291.29C393.08 291.87 389.29 294.84 386.01 298.06C382.33 301.68 379.01 305.62 375.56 309.49C374.7 310.49 373.84 311.49 372.99 312.44C372.92 312.53 373.05 312.66 373.12 312.57C376.46 308.74 379.92 305.02 383.54 301.47C386.89 298.18 390.33 294.59 394.97 293.23C397.124 292.546 399.428 292.494 401.61 293.08C403.346 293.628 404.911 294.617 406.15 295.95C408.76 298.67 410.22 302.34 411.27 305.9C414.16 315.79 415.2 326.16 416.27 336.37C417.36 346.75 418.1 357.15 418.62 367.57C419.14 377.99 419.55 388.57 420.56 398.97C420.69 400.26 420.85 401.55 421.02 402.83C421.13 403.7 422.47 403.7 422.4 402.83C421.54 392 421.05 381.23 420.56 370.42Z" fill="#263238"/>
<path d="M385.42 299.24C385.42 299.24 391.57 287.87 384.31 284.24C377.05 280.61 352.75 307.71 345.65 347.37C345.65 347.37 384.89 330.01 398.22 312.71C411.55 295.41 396.44 291.59 385.42 299.24Z" fill="#6F972D"/>
<path d="M391.19 308.49C386.78 308.49 382.38 308.16 377.97 308.19C378.8 307.24 379.62 306.29 380.46 305.35C381.694 304.094 382.843 302.758 383.9 301.35C383.97 301.26 383.83 301.13 383.74 301.2C382.549 302.233 381.436 303.353 380.41 304.55C379.297 305.717 378.197 306.897 377.11 308.09C375.42 309.91 373.77 311.76 372.11 313.62V310.77C372.11 309.27 372.11 307.77 372.16 306.28C372.16 303.28 372.16 300.2 372.39 297.18C372.39 297.06 372.22 297.07 372.21 297.18C372 300.18 371.68 303.25 371.53 306.3C371.46 307.79 371.42 309.3 371.41 310.79C371.41 311.56 371.41 312.33 371.41 313.1C371.41 313.52 371.41 313.97 371.41 314.4L370.63 315.27C367.11 319.27 363.76 323.45 360.51 327.68C360.51 327.45 360.51 327.21 360.45 326.98C360.45 326.51 360.35 326.05 360.29 325.58C360.18 324.58 360.04 323.58 359.89 322.58C359.74 321.58 359.6 320.69 359.44 319.75C359.28 318.81 359 317.62 358.92 316.54C358.92 316.516 358.911 316.493 358.894 316.476C358.877 316.46 358.854 316.45 358.83 316.45C358.806 316.45 358.783 316.46 358.766 316.476C358.749 316.493 358.74 316.516 358.74 316.54C358.928 317.608 359.051 318.687 359.11 319.77L359.38 322.68C359.47 323.68 359.56 324.63 359.66 325.6C359.66 326.06 359.75 326.53 359.8 327C359.8 327.23 359.85 327.46 359.88 327.7C359.902 327.895 359.967 328.083 360.07 328.25L358.39 330.44C356.17 333.39 353.98 336.37 351.8 339.34C351.73 339.43 351.86 339.56 351.93 339.46C354 336.77 356.13 334.12 358.29 331.46C359.9 331.53 361.55 331.41 363.16 331.39C364.77 331.37 366.56 331.39 368.27 331.34C368.38 331.34 368.38 331.16 368.27 331.16C366.57 331.16 364.87 331.22 363.17 331.22C361.47 331.22 360.03 331.15 358.48 331.22C360.38 328.907 362.293 326.61 364.22 324.33L366.33 321.84C366.993 321.927 367.663 321.947 368.33 321.9H370.65L375 321.84C378 321.79 381 321.69 384 321.69C384.02 321.683 384.037 321.671 384.05 321.654C384.062 321.637 384.069 321.616 384.069 321.595C384.069 321.574 384.062 321.553 384.05 321.536C384.037 321.519 384.02 321.507 384 321.5C381 321.5 378 321.34 375 321.26C373.55 321.26 372.1 321.18 370.65 321.16H368.33C367.89 321.16 367.43 321.16 366.99 321.16L371.93 315.3C371.97 315.277 372.001 315.242 372.02 315.2C373.63 313.3 375.24 311.4 376.86 309.52L377.54 308.75C382.11 308.89 386.67 308.59 391.25 308.68C391.31 308.68 391.31 308.49 391.19 308.49Z" fill="#263238"/>
<path d="M388.93 316.29H387.87C387.849 316.29 387.828 316.298 387.813 316.313C387.798 316.328 387.79 316.349 387.79 316.37C387.79 316.391 387.798 316.412 387.813 316.427C387.828 316.442 387.849 316.45 387.87 316.45H388.94C389.06 316.47 389.05 316.29 388.93 316.29Z" fill="#263238"/>
<path d="M386.56 316.3C385.15 316.3 383.73 316.25 382.32 316.21L380.2 316.15C379.536 316.062 378.864 316.062 378.2 316.15C378.13 316.15 378.14 316.26 378.2 316.28C378.858 316.413 379.53 316.46 380.2 316.42H382.32C383.73 316.42 385.14 316.42 386.55 316.42C386.561 316.434 386.576 316.445 386.593 316.451C386.611 316.457 386.629 316.457 386.647 316.452C386.664 316.447 386.68 316.437 386.691 316.422C386.703 316.408 386.71 316.391 386.711 316.373C386.713 316.355 386.709 316.337 386.7 316.321C386.691 316.305 386.677 316.292 386.661 316.284C386.644 316.277 386.626 316.274 386.608 316.277C386.59 316.279 386.573 316.287 386.56 316.3Z" fill="#263238"/>
<path d="M374.22 329.55C371.354 329.072 368.456 328.808 365.55 328.76C365.5 328.76 365.55 328.82 365.55 328.83C368.43 329.1 371.32 329.26 374.18 329.72C374.3 329.74 374.34 329.56 374.22 329.55Z" fill="#263238"/>
<path d="M362.43 316.92L362.34 316.16C362.26 315.6 362.17 315.03 362.08 314.46C361.92 313.39 361.73 312.31 361.52 311.24C361.52 311.14 361.33 311.17 361.34 311.24C361.48 312.353 361.6 313.463 361.7 314.57C361.75 315.12 361.79 315.66 361.84 316.21C361.827 316.735 361.901 317.259 362.06 317.76C362.081 317.795 362.112 317.822 362.149 317.84C362.185 317.857 362.226 317.863 362.266 317.858C362.306 317.853 362.344 317.836 362.375 317.81C362.406 317.783 362.428 317.749 362.44 317.71C362.488 317.449 362.484 317.18 362.43 316.92Z" fill="#263238"/>
<path d="M420.18 284.64C418.77 282.03 416.98 278.57 413.48 278.79C410.58 278.97 409.28 281.93 408.66 284.37C406.75 291.92 406.61 299.89 406.24 307.63C405.46 323.98 404.75 340.36 404.64 356.73C404.64 361.27 404.64 365.81 404.64 370.35C404.69 374.98 404.64 379.64 404.97 384.26C404.97 384.35 405.006 384.437 405.07 384.5C405.133 384.564 405.22 384.6 405.31 384.6C405.4 384.6 405.487 384.564 405.55 384.5C405.614 384.437 405.65 384.35 405.65 384.26C405.65 380.26 405.53 376.34 405.52 372.38C405.51 368.42 405.52 364.65 405.6 360.79C405.72 352.957 405.927 345.13 406.22 337.31C406.51 329.53 406.85 321.76 407.22 313.99C407.39 310.1 407.55 306.22 407.73 302.33C407.91 298.44 408.06 294.8 408.49 291.06C408.73 288.96 409.04 286.86 409.49 284.8C409.709 283.264 410.334 281.814 411.3 280.6C411.974 279.95 412.854 279.557 413.788 279.49C414.722 279.422 415.65 279.684 416.41 280.23C418.01 281.381 419.265 282.948 420.04 284.76C420.08 284.84 420.23 284.75 420.18 284.64Z" fill="#263238"/>
<path d="M419.23 283.39C419.23 283.39 416.34 273.22 422.72 278.3C433.32 286.78 433.72 305.21 433.72 305.21C433.72 305.21 414.86 294.21 412.52 287.03C409 276.27 419.23 283.39 419.23 283.39Z" fill="#6F972D"/>
<path d="M429.73 297.65C429.56 297.37 429.38 297.1 429.2 296.82C429.22 296.531 429.22 296.24 429.2 295.95C429.2 295.51 429.2 295.07 429.2 294.63C429.2 293.77 429.25 292.92 429.3 292.06C429.293 292.04 429.281 292.023 429.264 292.01C429.247 291.998 429.226 291.991 429.205 291.991C429.184 291.991 429.163 291.998 429.146 292.01C429.129 292.023 429.117 292.04 429.11 292.06C429.11 292.9 429.04 293.75 429.01 294.59C429.01 295.01 429.01 295.43 429.01 295.86C429.01 296.02 429.01 296.21 429.01 296.4C428.27 295.25 427.51 294.11 426.73 293C426.5 292.67 426.26 292.35 426.03 292C425.915 290.897 425.895 289.786 425.97 288.68C425.97 287.5 425.97 286.31 426.04 285.13C426.04 285.02 425.86 285.02 425.86 285.13C425.86 286.36 425.76 287.59 425.7 288.82C425.632 289.695 425.608 290.573 425.63 291.45C423.81 288.97 421.88 286.58 419.92 284.21C419.86 284.13 419.72 284.21 419.78 284.32C420.99 285.86 422.15 287.43 423.29 289.02C421.07 288.5 418.82 288.2 416.56 287.88C416.45 287.88 416.4 288.04 416.56 288.05C418.94 288.42 421.29 289.05 423.64 289.53H423.69C424.59 290.8 425.49 292.08 426.37 293.36L427.44 294.93H427.34L426.61 294.83C426.09 294.77 425.56 294.73 425.04 294.69C423.95 294.6 422.86 294.54 421.77 294.48C421.66 294.48 421.66 294.66 421.77 294.67C422.84 294.67 423.91 294.77 424.97 294.89L426.66 295.09L427.4 295.18H427.61L429.42 297.85C430.49 299.42 431.42 301.11 432.58 302.63C432.592 302.649 432.611 302.662 432.632 302.666C432.654 302.671 432.676 302.667 432.695 302.655C432.714 302.643 432.727 302.624 432.731 302.603C432.736 302.581 432.732 302.559 432.72 302.54C431.82 300.853 430.821 299.22 429.73 297.65Z" fill="#263238"/>
<path d="M425 286.15C425 285.76 425 285.36 425 284.97C424.968 284.135 425.002 283.3 425.1 282.47C425.1 282.34 424.92 282.32 424.92 282.47C424.92 283.3 424.83 284.12 424.79 284.94C424.79 285.35 424.79 285.77 424.79 286.18V286.75C424.755 286.945 424.755 287.145 424.79 287.34C424.79 287.361 424.798 287.382 424.813 287.397C424.828 287.412 424.849 287.42 424.87 287.42C424.891 287.42 424.912 287.412 424.927 287.397C424.942 287.382 424.95 287.361 424.95 287.34C424.98 287.158 424.98 286.972 424.95 286.79L425 286.15Z" fill="#263238"/>
<path d="M422.71 290.37C422.01 290.25 421.29 290.21 420.58 290.15C419.87 290.09 419.03 290.02 418.25 289.92C418.226 289.92 418.203 289.929 418.186 289.946C418.17 289.963 418.16 289.986 418.16 290.01C418.16 290.034 418.17 290.057 418.186 290.074C418.203 290.09 418.226 290.1 418.25 290.1C419.74 290.19 421.25 290.46 422.71 290.51C422.77 290.52 422.79 290.38 422.71 290.37Z" fill="#263238"/>
<path d="M420.61 339C416.61 336 413.09 331.75 407.75 331.54C403.35 331.37 400.26 334.68 398.5 338.37C397.611 340.333 396.889 342.367 396.34 344.45C395.553 347.243 394.807 350.043 394.1 352.85C392.707 358.377 391.527 363.953 390.56 369.58C390.03 372.71 389.56 375.85 389.13 379C388.624 382.198 388.317 385.424 388.21 388.66C388.195 388.793 388.234 388.926 388.318 389.03C388.401 389.134 388.522 389.2 388.655 389.215C388.788 389.23 388.921 389.191 389.025 389.107C389.129 389.024 389.195 388.903 389.21 388.77C389.75 386.13 389.97 383.41 390.36 380.77C390.75 378.13 391.16 375.41 391.61 372.77C392.52 367.43 393.61 362.11 394.77 356.83C395.91 351.83 397.03 346.77 398.64 341.91C399.79 338.43 401.64 334.37 405.4 333.11C411.12 331.21 416.32 336.05 420.51 339.2C420.58 339.16 420.71 339 420.61 339Z" fill="#263238"/>
<path d="M416.51 336.11C416.51 336.11 412.86 325.67 418.14 323.62C426.07 320.55 446.81 343.91 442.75 379.7C442.75 379.7 426.75 370.88 414.89 360.95C403.03 351.02 400 338 405.24 334.69C410.48 331.38 416.51 336.11 416.51 336.11Z" fill="#6F972D"/>
<path d="M440.35 372C439.798 370.75 439.153 369.543 438.42 368.39C437.75 367.17 437.06 365.95 436.35 364.74C434.98 362.38 433.61 360.02 432.2 357.74L431.5 356.61C431.5 356.47 431.56 356.33 431.59 356.19L431.83 355.19C432 354.42 432.14 353.63 432.28 352.85C432.57 351.32 432.84 349.76 433.28 348.26C433.28 348.15 433.13 348.11 433.1 348.26C432.77 349.79 432.29 351.26 431.84 352.79C431.62 353.53 431.38 354.27 431.18 355.01C431.12 355.27 431.05 355.52 430.98 355.78C429.28 352.99 427.55 350.21 425.68 347.52C425.803 347.149 425.864 346.761 425.86 346.37L426.04 344.81C426.18 343.63 426.32 342.45 426.49 341.28C426.794 338.974 427.215 336.684 427.75 334.42C427.75 334.31 427.6 334.28 427.57 334.42C427 336.67 426.38 338.93 425.95 341.21C425.74 342.33 425.54 343.46 425.39 344.59C425.32 345.15 425.26 345.72 425.2 346.29C425.2 346.45 425.15 346.63 425.13 346.8C424.56 345.99 423.98 345.18 423.38 344.39C421.55 341.98 419.65 339.63 417.74 337.29C417.67 337.2 417.52 337.29 417.59 337.39C420.865 341.582 423.871 345.978 426.59 350.55C427.12 351.39 427.59 352.24 428.15 353.08L427.64 353.02C426.97 352.93 426.29 352.89 425.64 352.83C424.307 352.703 422.957 352.583 421.59 352.47C418.89 352.26 416.18 352.09 413.49 351.81C413.37 351.81 413.34 351.97 413.49 351.98C416.22 352.3 418.93 352.73 421.65 353.12L425.65 353.66C426.663 353.869 427.695 353.977 428.73 353.98C429.797 355.7 430.86 357.423 431.92 359.15C431.68 359.13 431.44 359.13 431.2 359.15H427.34C425.6 359.15 423.87 359.15 422.13 359.15C422.01 359.15 422.03 359.33 422.13 359.33C423.89 359.33 425.64 359.44 427.4 359.53C428.24 359.53 429.07 359.62 429.91 359.68C430.32 359.68 430.74 359.75 431.16 359.77C431.523 359.845 431.897 359.845 432.26 359.77L434.96 364.16C435.787 365.493 436.63 366.827 437.49 368.16C438.289 369.589 439.199 370.953 440.21 372.24C440.25 372.2 440.39 372.15 440.35 372Z" fill="#263238"/>
<path d="M432.72 343.1C432.555 344.251 432.315 345.39 432 346.51C431.7 347.67 431.37 348.82 431 349.95C430.99 349.965 430.983 349.983 430.981 350.001C430.979 350.02 430.981 350.039 430.987 350.056C430.993 350.074 431.003 350.089 431.017 350.102C431.03 350.115 431.046 350.125 431.064 350.13C431.081 350.136 431.1 350.138 431.118 350.135C431.137 350.132 431.154 350.125 431.169 350.114C431.185 350.103 431.197 350.089 431.206 350.073C431.215 350.057 431.219 350.038 431.22 350.02C431.57 348.89 431.89 347.75 432.22 346.61C432.55 345.47 432.67 344.28 432.96 343.14C432.92 343 432.73 343 432.72 343.1Z" fill="#263238"/>
<path d="M420.94 350.1C420.7 349.887 420.391 349.77 420.07 349.77L418.56 349.56C417.62 349.43 416.68 349.33 415.74 349.22C413.79 348.99 411.83 348.8 409.88 348.56C409.856 348.56 409.833 348.57 409.816 348.586C409.799 348.603 409.79 348.626 409.79 348.65C409.79 348.674 409.799 348.697 409.816 348.714C409.833 348.731 409.856 348.74 409.88 348.74C411.72 348.96 413.55 349.24 415.39 349.48C416.29 349.6 417.19 349.73 418.1 349.83L419.4 349.98C419.907 349.982 420.41 350.066 420.89 350.23C420.904 350.228 420.917 350.222 420.928 350.213C420.939 350.204 420.948 350.193 420.953 350.18C420.958 350.166 420.96 350.152 420.957 350.138C420.955 350.124 420.949 350.111 420.94 350.1Z" fill="#263238"/>
<path d="M432.69 365.83C431.77 365.76 430.84 365.73 429.91 365.7H428.51H427.84C427.549 365.718 427.257 365.702 426.97 365.65C426.84 365.65 426.83 365.86 426.97 365.83C427.243 365.8 427.518 365.8 427.79 365.83H428.52L429.92 365.92C430.84 365.97 431.77 366.03 432.69 366.03C432.79 366 432.8 365.84 432.69 365.83Z" fill="#263238"/>
<path d="M438.34 361.83L438.64 360.26L439.21 357.16C439.21 357.05 439.05 357.02 439.03 357.16C438.8 358.16 438.57 359.16 438.35 360.16C438.23 360.66 438.12 361.16 438.02 361.66L437.87 362.36C437.794 362.599 437.767 362.85 437.79 363.1C437.79 363.19 437.93 363.25 437.99 363.16C438.186 362.741 438.304 362.291 438.34 361.83Z" fill="#263238"/>
<path d="M384.08 384.6L385.2 397.29L388.99 440.13H422.54L427.27 397.29L428.67 384.6H384.08Z" fill="#455A64"/>
<path d="M384.08 384.6L385.2 397.29H427.27L428.67 384.6H384.08Z" fill="#263238"/>
<path d="M380.76 391.44H432V381.15H380.76V391.44Z" fill="#455A64"/>
<path d="M30.67 440L85.5 439.76L140.34 439.67L250 439.5L359.66 439.67L414.5 439.75L469.33 440L414.5 440.24L359.66 440.33L250 440.5L140.34 440.33L85.5 440.24L30.67 440Z" fill="#263238"/>
<path d="M201.15 360V360.14C201.15 360.14 201.15 360.2 201.15 360.24C201.15 360.28 201.15 360.4 201.2 360.51V360.69C201.232 360.818 201.255 360.949 201.27 361.08C201.27 361.17 201.27 361.26 201.32 361.36C201.37 361.46 201.39 361.78 201.44 362.02C201.49 362.26 201.59 362.83 201.67 363.31L202.12 365.75C202.17 366.01 202.22 366.29 202.27 366.58C202.32 366.87 202.41 367.36 202.49 367.77C202.57 368.18 202.65 368.69 202.74 369.18C202.8 369.52 202.87 369.87 202.93 370.23C203.12 371.3 203.32 372.44 203.55 373.66C203.555 373.69 203.555 373.72 203.55 373.75C203.79 375.11 204.05 376.57 204.33 378.1C204.4 378.5 204.48 378.9 204.56 379.3C204.64 379.7 204.72 380.14 204.79 380.56C204.79 380.82 204.88 381.09 204.94 381.36C205.32 383.487 205.73 385.74 206.17 388.12C206.32 388.92 206.46 389.73 206.61 390.55C206.9 392.15 207.2 393.79 207.51 395.48C207.59 395.87 207.66 396.26 207.72 396.66C208.167 399.107 208.63 401.653 209.11 404.3C209.17 404.57 209.21 404.84 209.26 405.11C209.49 406.35 209.72 407.6 209.94 408.88C209.97 408.978 209.99 409.078 210 409.18L210.33 411C210.77 413.44 211.223 415.937 211.69 418.49C211.81 419.12 211.93 419.76 212.04 420.41C212.27 421.7 212.51 423 212.75 424.31C213.05 425.94 213.35 427.58 213.65 429.25C213.95 430.92 214.25 432.59 214.56 434.25C214.72 435.1 214.87 435.95 215.03 436.8C215.21 437.8 215.4 438.8 215.58 439.87H302C291.34 395.58 282.35 359.87 282.35 359.87L201.15 360Z" fill="#455A64"/>
<path d="M214.21 370C218.537 393.333 222.91 416.667 227.33 440H228.53C223.94 416.61 219.21 393.26 214.53 369.9C214.46 369.68 214.18 369.77 214.21 370Z" fill="#37474F"/>
<path d="M201.16 360C201.16 360 201.16 360.05 201.16 360.14C201.16 360.23 201.16 360.2 201.16 360.24C201.16 360.28 201.16 360.4 201.21 360.51V360.69C201.242 360.818 201.265 360.949 201.28 361.08C201.28 361.17 201.28 361.26 201.33 361.36C201.38 361.46 201.41 361.78 201.45 362.02C201.49 362.26 201.6 362.83 201.68 363.31C201.82 364.02 201.96 364.83 202.13 365.75C202.18 366.01 202.23 366.29 202.28 366.58C202.33 366.87 202.42 367.36 202.5 367.77C202.58 368.18 202.66 368.69 202.75 369.18C202.81 369.52 202.88 369.87 202.94 370.23C203.14 371.3 203.34 372.44 203.56 373.66C203.565 373.69 203.565 373.72 203.56 373.75C203.81 375.11 204.07 376.55 204.35 378.08C204.43 378.48 204.5 378.89 204.57 379.3C204.64 379.71 204.73 380.14 204.8 380.56C204.86 380.82 204.9 381.09 204.95 381.36C205.34 383.48 205.75 385.74 206.18 388.12C206.33 388.92 206.47 389.73 206.62 390.55C206.92 392.15 207.22 393.79 207.52 395.48C207.6 395.87 207.67 396.26 207.73 396.66C208.19 399.12 208.653 401.667 209.12 404.3C209.18 404.57 209.22 404.84 209.27 405.11C209.5 406.35 209.73 407.6 209.95 408.88C209.98 408.978 210 409.078 210.01 409.18L210.34 411C210.787 413.44 211.24 415.937 211.7 418.49C211.82 419.12 211.94 419.76 212.05 420.41C212.29 421.7 212.52 423 212.76 424.31C213.06 425.94 213.36 427.58 213.66 429.25C213.96 430.92 214.27 432.59 214.57 434.25C214.73 435.1 214.88 435.95 215.04 436.8C215.22 437.8 215.41 438.8 215.6 439.87H259L262.47 404.35L262.59 403.09L262.73 401.73L263.41 394.78L264 388.78L266.79 360H201.16Z" fill="#263238"/>
<path d="M152.05 440H245.26C245.42 431.42 245.59 423.12 245.8 415.29C245.8 415.1 245.8 414.91 245.8 414.72C245.8 414.72 256.68 408.28 262.54 403.23C263.536 402.411 264.453 401.5 265.28 400.51C269.03 395.73 272.79 377.35 280.57 360.06H166.57C148.05 396 149.35 424.88 152.05 440Z" fill="#455A64"/>
<path d="M268 399.24C262.45 401.51 257.46 405 252.54 408.37C247.43 411.86 242.74 415.9 237.82 419.65C237.63 419.8 237.82 420.11 238.02 419.97C243.2 416.66 248.63 413.75 253.76 410.34C258.89 406.93 263.92 403.81 268.25 399.64C268.42 399.48 268.23 399.14 268 399.24Z" fill="#263238"/>
<path d="M268.7 367.17C268.04 370.72 267.17 374.24 266.41 377.77C265.69 381.08 265.16 384.45 264.29 387.77C263.576 390.938 261.965 393.833 259.65 396.11C258.35 397.32 256.92 398.39 255.53 399.49C254.79 400.09 253.98 400.66 253.2 401.27C253.3 400.8 253.39 400.27 253.47 399.84C253.71 398.49 253.93 397.15 254.16 395.84C254.66 392.84 255.16 389.84 255.6 386.84C256.5 380.95 257.33 375 258.6 369.17C258.613 369.121 258.607 369.069 258.581 369.024C258.556 368.98 258.514 368.948 258.465 368.935C258.416 368.922 258.364 368.928 258.32 368.954C258.276 368.979 258.243 369.021 258.23 369.07C256.76 374.85 255.14 380.57 253.87 386.4C253.24 389.25 251 403.4 250.87 404.4C250.74 405.4 250.68 406.47 250.65 407.5C250.515 408.552 250.515 409.618 250.65 410.67C250.672 410.717 250.706 410.756 250.75 410.784C250.793 410.812 250.844 410.826 250.895 410.826C250.947 410.826 250.997 410.812 251.04 410.784C251.084 410.756 251.118 410.717 251.14 410.67C251.566 409.691 251.868 408.663 252.04 407.61C252.3 406.603 252.52 405.583 252.7 404.55C252.77 404.19 252.82 403.81 252.87 403.43C254.26 402.58 255.56 401.43 256.87 400.53C258.18 399.63 259.69 398.53 261.02 397.41C263.465 395.337 265.232 392.578 266.09 389.49C266.943 386.166 267.499 382.773 267.75 379.35C268.2 375.35 268.52 371.35 269.08 367.35C269.1 367 268.74 366.93 268.7 367.17Z" fill="#263238"/>
<path d="M173.85 391.89C175.33 391.12 181.1 392.49 191.59 390.7C193.643 390.434 195.593 389.642 197.25 388.4C199.99 386.17 202.06 382.58 203.71 379.51C205.69 376.056 207.209 372.358 208.23 368.51C208.28 368.27 208.62 368.39 208.58 368.61C208.19 370.78 207.97 372.95 207.4 375.1C206.832 377.117 206.106 379.086 205.23 380.99C203.64 384.55 201.79 388.37 198.6 390.78C195.25 393.3 190.6 393.78 186.52 394.06C184.17 394.22 174.96 393.97 173.73 392.66C173.683 392.603 173.649 392.537 173.629 392.466C173.609 392.395 173.605 392.321 173.616 392.248C173.628 392.175 173.654 392.105 173.695 392.044C173.735 391.982 173.788 391.93 173.85 391.89Z" fill="#263238"/>
<path d="M246.26 224.58C269 237.2 353.12 269.48 372 258C386.07 249.44 384.06 231.07 372.09 219.22C361.68 208.91 283.68 206.01 261.85 205.41C241.1 204.8 224 212.18 246.26 224.58Z" fill="#AD6359"/>
<path d="M302.19 253.05L336.09 206.54C336.09 206.54 277.43 200.83 252.66 202.97C226.84 205.2 221.55 215.3 252.72 229.67C283.42 243.82 302.19 253.05 302.19 253.05Z" fill="#6F972D"/>
<path d="M296.47 244.08C297.15 242.88 298 241.77 298.78 240.64C299.56 239.51 300.39 238.32 301.19 237.15C302.82 234.79 304.49 232.46 306.19 230.15C309.55 225.51 312.89 220.86 316.33 216.28C317.27 215.02 318.22 213.76 319.2 212.53C320.18 211.3 321.35 210 322.37 208.71C322.43 208.62 322.54 208.71 322.49 208.81C321.69 209.98 320.99 211.22 320.2 212.4C319.41 213.58 318.56 214.81 317.72 215.99C316.06 218.33 314.393 220.663 312.72 222.99C309.38 227.53 306.06 232.09 302.62 236.56L299.73 240.3C298.73 241.6 297.78 242.99 296.66 244.2C296.54 244.22 296.42 244.16 296.47 244.08Z" fill="#263238"/>
<path d="M273.8 210.27C273.168 211.612 272.727 213.036 272.49 214.5C273.453 213.37 274.248 212.107 274.85 210.75C275.483 209.409 275.924 207.985 276.16 206.52C275.201 207.653 274.406 208.915 273.8 210.27ZM286.57 232.35C285.23 231.712 283.806 231.271 282.34 231.04C284.642 232.936 287.4 234.198 290.34 234.7C289.204 233.739 287.934 232.947 286.57 232.35ZM251.38 216.51C250.04 215.872 248.616 215.431 247.15 215.2C249.452 217.096 252.21 218.358 255.15 218.86C254.011 217.902 252.742 217.111 251.38 216.51ZM302.54 214.17C302.042 212.772 301.349 211.453 300.48 210.25C300.75 213.21 301.784 216.049 303.48 218.49C303.379 217.012 303.062 215.557 302.54 214.17ZM312.82 231.17C311.424 231.672 310.105 232.365 308.9 233.23C311.86 232.96 314.699 231.926 317.14 230.23C315.663 230.336 314.208 230.652 312.82 231.17Z" fill="white"/>
<path d="M252.72 229.66C283.42 243.81 302.19 253.05 302.19 253.05L313 238.17L231.74 210.37C229.41 215.09 235.51 221.73 252.72 229.66Z" fill="#263238"/>
<path d="M324.4 122.08C318.1 113.31 302.05 101.08 286.02 91.63C278.24 87.02 254.51 76.17 250.52 81.86C246.53 87.55 253.18 91.35 253.18 91.35C253.18 91.35 242.47 88.26 238.97 94.35C235.47 100.44 246 106 246 106C246 106 234.76 103.63 231.71 110C228.66 116.37 240.2 120.14 240.2 120.14C240.2 120.14 230.03 117.5 229.71 123.77C229.33 131.33 248.63 134.08 256.97 139.61C258.87 140.86 293.57 167.77 293.57 167.77L324.4 122.08Z" fill="#AD6359"/>
<path d="M240.34 120.3C254.53 122.37 260.34 125.72 271.11 134.89C271.32 135.07 271.63 134.8 271.43 134.59C261.74 124.66 255.01 119.39 240.43 119.59C239.69 119.62 239.67 120.21 240.34 120.3Z" fill="#263238"/>
<path d="M245.49 105.75C260.04 109.18 266.41 112.75 278.36 121.54C278.52 121.67 278.75 121.39 278.59 121.25C267.59 111.66 260.76 106.56 245.77 105.05C245.1 105 244.82 105.6 245.49 105.75Z" fill="#263238"/>
<path d="M254.37 91.69C268.21 96.03 275.37 99.69 285.87 109.69C285.921 109.734 285.986 109.758 286.053 109.756C286.12 109.755 286.185 109.729 286.233 109.682C286.282 109.636 286.312 109.573 286.317 109.506C286.322 109.439 286.301 109.373 286.26 109.32C276.55 98.07 267.65 93.48 254.54 91.32C253.65 91.14 253.49 91.42 254.37 91.69Z" fill="#263238"/>
<path d="M299.05 176.41C299.05 176.41 281.5 172.54 274.17 169.15C266.84 165.76 244.17 143.03 248.8 137.85C254.8 131.17 270.45 141.71 277.45 147.85C277.45 147.85 291.26 132.38 304.14 137.51C317.02 142.64 299.05 176.41 299.05 176.41Z" fill="#AD6359"/>
<path d="M251.05 136.56C260.9 134.4 269.56 143.08 276.8 148.56C276.902 148.647 277.024 148.708 277.154 148.737C277.285 148.767 277.421 148.763 277.551 148.728C277.68 148.692 277.798 148.626 277.896 148.534C277.994 148.442 278.067 148.327 278.11 148.2C284.33 142.11 294.89 135.32 303.92 137.03C303.97 137.036 304.02 137.023 304.061 136.995C304.103 136.967 304.133 136.925 304.146 136.877C304.159 136.829 304.155 136.777 304.134 136.732C304.112 136.687 304.076 136.651 304.03 136.63C294.59 133.47 283.68 139.3 277.29 146.41C269.96 140.68 260.89 132.35 251.02 136.47C251.012 136.476 251.005 136.485 251.002 136.495C250.999 136.505 250.999 136.516 251.003 136.526C251.006 136.536 251.012 136.545 251.021 136.551C251.029 136.557 251.04 136.56 251.05 136.56Z" fill="#263238"/>
<path d="M381.84 241.68C381.21 261.11 358.17 259.77 348.22 250.53C324.85 228.86 290.4 184.64 281.06 157.38C278.06 148.61 313.34 110.07 320.2 117.23C332.39 129.93 383.12 202.25 381.84 241.68Z" fill="#AD6359"/>
<path d="M322.66 223C324.38 224.75 326.03 226.54 327.66 228.35C329.29 230.16 330.93 231.97 332.55 233.79L337.36 239.3C338.15 240.22 338.96 241.13 339.78 242.04C340.6 242.95 341.41 243.85 342.23 244.76C340.31 243.238 338.496 241.588 336.8 239.82C335.07 238.09 333.42 236.28 331.8 234.45C330.18 232.62 328.6 230.76 327.08 228.84C325.56 226.92 324.07 225 322.66 223Z" fill="#263238"/>
<path d="M332.46 234.42C333.28 235.6 333.99 236.75 334.7 237.93C335.04 238.52 335.39 239.11 335.7 239.72C336.037 240.341 336.334 240.982 336.59 241.64C335.471 240.759 334.533 239.669 333.83 238.43C333.468 237.822 333.16 237.182 332.91 236.52C332.65 235.848 332.498 235.139 332.46 234.42Z" fill="#263238"/>
<path d="M290.94 379.16H156C156 379.16 176.61 250.44 226.33 206.42C232.47 200.98 246.33 202.22 255.33 206.71C258.56 208.32 270.15 224.53 273.46 239.87C276.77 255.21 291.3 378.7 290.94 379.16Z" fill="#6F972D"/>
<path d="M210.79 243.55C209.391 244.045 208.071 244.739 206.87 245.61C209.835 245.325 212.674 244.274 215.11 242.56C213.63 242.682 212.175 243.015 210.79 243.55ZM276.43 258.55C276.371 258.587 276.314 258.627 276.26 258.67H276.44C276.44 258.67 276.43 258.54 276.43 258.51V258.55ZM241.37 278.85C239.974 279.352 238.655 280.045 237.45 280.91C240.415 280.625 243.254 279.574 245.69 277.86C244.212 277.969 242.757 278.289 241.37 278.81V278.85ZM223 334.71C221.601 335.209 220.281 335.906 219.08 336.78C220.56 336.655 222.015 336.318 223.4 335.78C224.798 335.279 226.118 334.582 227.32 333.71C225.84 333.835 224.385 334.172 223 334.71ZM192.13 295.71C190.734 296.212 189.415 296.905 188.21 297.77C191.175 297.485 194.014 296.434 196.45 294.72C194.982 294.855 193.541 295.199 192.17 295.74L192.13 295.71ZM164.45 373.45C163.052 373.948 161.733 374.641 160.53 375.51C163.497 375.227 166.338 374.172 168.77 372.45C167.302 372.589 165.861 372.935 164.49 373.48L164.45 373.45ZM224.04 368.58C222.642 369.078 221.323 369.771 220.12 370.64C223.087 370.357 225.928 369.302 228.36 367.58C226.891 367.714 225.449 368.061 224.08 368.61L224.04 368.58ZM290.43 374.06C289.473 374.25 288.533 374.518 287.62 374.86C286.223 375.36 284.904 376.053 283.7 376.92C285.18 376.794 286.635 376.457 288.02 375.92C288.878 375.598 289.714 375.217 290.52 374.78C290.53 374.59 290.51 374.34 290.47 374.09L290.43 374.06ZM262.54 333.16C261.142 333.658 259.823 334.351 258.62 335.22C261.585 334.935 264.424 333.884 266.86 332.17C265.391 332.301 263.95 332.644 262.58 333.19L262.54 333.16ZM224.69 222.72C224.192 221.322 223.499 220.003 222.63 218.8C222.915 221.765 223.966 224.604 225.68 227.04C225.563 225.559 225.229 224.104 224.69 222.72ZM195 373.7C194.505 372.301 193.811 370.981 192.94 369.78C193.232 372.739 194.286 375.571 196 378C195.878 376.526 195.541 375.077 195 373.7ZM189.08 336.11C188.578 334.714 187.877 333.397 187 332.2C187.126 333.677 187.463 335.128 188 336.51C188.497 337.91 189.194 339.23 190.07 340.43C189.948 338.95 189.615 337.495 189.08 336.11ZM240.41 313.77C239.91 312.373 239.217 311.054 238.35 309.85C238.635 312.815 239.686 315.654 241.4 318.09C241.278 316.61 240.945 315.155 240.41 313.77ZM222.25 265.58C221.749 264.182 221.052 262.862 220.18 261.66C220.463 264.627 221.518 267.468 223.24 269.9C223.118 268.42 222.785 266.965 222.25 265.58ZM247.11 375.58C247.203 376.817 247.455 378.037 247.86 379.21H249.06C248.578 377.901 247.922 376.664 247.11 375.53V375.58ZM285.34 347.58C284.843 346.18 284.146 344.86 283.27 343.66C283.401 345.136 283.738 346.587 284.27 347.97C284.767 349.37 285.464 350.69 286.34 351.89C286.219 350.399 285.882 348.934 285.34 347.54V347.58ZM262 238.06C261.501 236.664 260.804 235.347 259.93 234.15C260.061 235.626 260.398 237.077 260.93 238.46C261.419 239.861 262.113 241.182 262.99 242.38C262.868 240.9 262.535 239.445 262 238.06ZM251.4 216.51C250.06 215.872 248.636 215.431 247.17 215.2C249.472 217.096 252.23 218.358 255.17 218.86C254.025 217.9 252.749 217.109 251.38 216.51H251.4ZM207.23 317.57C205.891 316.928 204.466 316.483 203 316.25C204.134 317.213 205.4 318.008 206.76 318.61C208.101 319.243 209.525 319.684 210.99 319.92C209.856 318.96 208.59 318.169 207.23 317.57ZM172.34 352.72C171 352.082 169.576 351.641 168.11 351.41C170.412 353.306 173.17 354.568 176.11 355.07C174.974 354.109 173.704 353.317 172.34 352.72ZM263.56 361.48C262.22 360.842 260.796 360.401 259.33 360.17C261.632 362.066 264.39 363.328 267.33 363.83C266.191 362.872 264.922 362.081 263.56 361.48ZM260.66 305.73C259.32 305.094 257.895 304.652 256.43 304.42C257.558 305.383 258.821 306.175 260.18 306.77C261.521 307.406 262.945 307.851 264.41 308.09C263.28 307.127 262.017 306.332 260.66 305.73ZM251.38 258.41C250.04 257.772 248.616 257.331 247.15 257.1C249.452 258.996 252.21 260.258 255.15 260.76C254.014 259.799 252.744 259.007 251.38 258.41ZM195.78 271.52C195.141 272.859 194.7 274.284 194.47 275.75C196.363 273.446 197.624 270.689 198.13 267.75C197.169 268.887 196.378 270.157 195.78 271.52ZM240.59 349.2C239.95 350.54 239.506 351.964 239.27 353.43C240.233 352.3 241.028 351.037 241.63 349.68C242.263 348.339 242.704 346.915 242.94 345.45C241.982 346.582 241.191 347.845 240.59 349.2ZM268 280.63C267.362 281.973 266.921 283.401 266.69 284.87C267.648 283.734 268.439 282.468 269.04 281.11C269.678 279.77 270.119 278.346 270.35 276.88C269.392 278.012 268.601 279.275 268 280.63ZM206.7 353.2C206.062 354.54 205.621 355.964 205.39 357.43C207.283 355.126 208.544 352.369 209.05 349.43C208.093 350.569 207.302 351.839 206.7 353.2ZM171.58 315.64C170.942 316.983 170.501 318.411 170.27 319.88C171.228 318.745 172.019 317.478 172.62 316.12C173.258 314.78 173.699 313.356 173.93 311.89C172.976 313.024 172.185 314.287 171.58 315.64ZM219.36 294.64C218.718 295.981 218.276 297.41 218.05 298.88C219.004 297.742 219.795 296.476 220.4 295.12C221.033 293.779 221.474 292.355 221.71 290.89C220.75 292.031 219.959 293.304 219.36 294.67V294.64ZM236.93 239.82C236.298 241.162 235.857 242.586 235.62 244.05C236.583 242.92 237.378 241.657 237.98 240.3C238.613 238.959 239.054 237.535 239.29 236.07C238.328 237.212 237.534 238.484 236.93 239.85V239.82Z" fill="white"/>
<path d="M203.24 383.79C203.24 376.24 205.43 330.62 204.13 315.66C203.69 310.66 221.01 254.73 225.48 235.95C229.68 218.33 220.71 210.55 207.54 227.14C196.59 240.94 167.97 294.83 162.19 309.22C156.41 323.61 150.39 372.09 150.43 382.34C150.47 390.45 203.21 391.25 203.24 383.79Z" fill="#AD6359"/>
<path d="M209 448.75C203.81 451.36 199.61 447.05 199.61 447.05C198.105 449.524 195.78 451.393 193.04 452.33C188.14 453.75 183.75 446.68 183.75 446.68C181.653 448.922 178.927 450.476 175.93 451.14C171.1 452.03 165.67 445.53 165.67 445.53C162.605 446.522 159.286 446.377 156.32 445.12C148.53 441.45 146.98 428.4 145.91 420.12C144.84 411.84 150.16 384.93 150.58 380.17L203.13 375.17C203.13 375.17 218.51 410.98 218.38 420.9C218.24 429.3 214.79 445.81 209 448.75Z" fill="#AD6359"/>
<path d="M199.8 446.85C202.04 437.98 201.55 428.94 201.56 419.85C201.551 419.816 201.531 419.785 201.503 419.763C201.475 419.742 201.441 419.73 201.405 419.73C201.369 419.73 201.335 419.742 201.307 419.763C201.279 419.785 201.259 419.816 201.25 419.85C201.34 428.85 199.64 437.76 199.37 446.75C199.357 446.807 199.367 446.867 199.398 446.917C199.429 446.966 199.478 447.002 199.535 447.015C199.592 447.028 199.652 447.018 199.702 446.987C199.751 446.957 199.787 446.907 199.8 446.85Z" fill="#263238"/>
<path d="M184.39 446.42C184.698 444.357 184.742 442.264 184.52 440.19C184.41 437.98 184.26 435.78 184.08 433.57C183.727 429.17 183.26 424.773 182.68 420.38C182.68 420.19 182.35 420.18 182.37 420.38C182.72 424.77 183 429.17 183.16 433.57C183.25 435.78 183.31 437.98 183.36 440.19C183.269 442.272 183.41 444.359 183.78 446.41C183.799 446.475 183.839 446.532 183.893 446.573C183.948 446.614 184.013 446.637 184.081 446.638C184.149 446.639 184.216 446.619 184.271 446.58C184.327 446.54 184.368 446.484 184.39 446.42Z" fill="#263238"/>
<path d="M165.62 445.34C166.08 443.61 165.62 441.5 165.43 439.73C165.23 437.73 165.03 435.73 164.85 433.73C164.48 429.73 164.12 425.73 163.9 421.73C163.9 421.53 163.57 421.53 163.58 421.73C163.79 425.81 163.94 429.91 164.19 433.99C164.31 435.99 164.44 437.99 164.58 439.99C164.7 441.7 164.66 443.84 165.42 445.41C165.46 445.46 165.59 445.43 165.62 445.34Z" fill="#263238"/>
<path d="M214.71 293.72L160.22 293.9C160.22 293.9 189.99 243.04 206.22 224.23C223.16 204.62 234.45 206.23 227.81 239.93C221.3 273.1 214.71 293.72 214.71 293.72Z" fill="#6F972D"/>
<path d="M195.78 271.52C195.141 272.859 194.699 274.284 194.47 275.75C196.363 273.446 197.624 270.689 198.13 267.75C197.169 268.887 196.378 270.157 195.78 271.52ZM203.9 227.06L203.34 227.75C204.046 227.987 204.772 228.158 205.51 228.26C205.01 227.814 204.471 227.412 203.9 227.06ZM186.48 255.06C186.216 254.357 185.912 253.669 185.57 253L184.93 254C185.07 254.5 185.23 255 185.4 255.47C185.899 256.869 186.596 258.189 187.47 259.39C187.355 257.886 187.021 256.408 186.48 255V255.06ZM222.25 265.62C221.749 264.222 221.052 262.902 220.18 261.7C220.305 263.181 220.642 264.635 221.18 266.02C221.38 266.53 221.59 267.02 221.81 267.53C221.96 266.91 222.11 266.29 222.27 265.65L222.25 265.62ZM224.69 222.76C224.192 221.362 223.499 220.043 222.63 218.84C222.915 221.805 223.966 224.644 225.68 227.08C225.567 225.586 225.233 224.117 224.69 222.72V222.76ZM170.07 281.9C168.691 282.386 167.386 283.059 166.19 283.9C169.147 283.61 171.979 282.559 174.41 280.85C172.922 280.977 171.461 281.317 170.07 281.86V281.9ZM210.79 243.59C209.391 244.086 208.071 244.779 206.87 245.65C209.835 245.365 212.674 244.314 215.11 242.6C213.632 242.709 212.177 243.029 210.79 243.55V243.59Z" fill="white"/>
<path d="M169.15 285.12C170.52 284.97 171.92 285.01 173.29 284.99L177.53 284.91C180.4 284.85 183.27 284.84 186.13 284.85C191.86 284.85 197.59 284.85 203.31 284.96C204.89 284.96 206.46 285.03 208.03 285.1C209.6 285.17 211.34 285.37 213.03 285.44C213.13 285.44 213.11 285.59 213.03 285.6C211.61 285.6 210.19 285.79 208.77 285.84C207.35 285.89 205.86 285.92 204.4 285.93C201.54 285.93 198.68 285.93 195.81 285.93C190.17 285.88 184.53 285.85 178.89 285.67L174.17 285.51C172.53 285.46 170.84 285.51 169.17 285.29C169.08 285.26 169.06 285.13 169.15 285.12Z" fill="#263238"/>
<path d="M222 268.45C223.169 266.679 223.987 264.7 224.41 262.62C224.41 262.62 224.35 262.57 224.34 262.62C223.754 264.409 223.018 266.145 222.14 267.81L222.65 265.56C223.25 262.83 223.86 260.12 224.33 257.37C224.33 257.37 224.27 257.3 224.26 257.37C222.89 262.03 221.73 266.77 220.47 271.47C219.21 276.17 217.93 281 216.68 285.77C215.99 288.38 215.3 290.98 214.68 293.59C213.79 293.67 213.1 293.64 212.31 293.71C212.1 293.71 212.08 294.09 212.31 294.11C213.309 294.189 214.314 294.172 215.31 294.06C218 285.65 220.06 277.05 222 268.45Z" fill="#263238"/>
<path d="M222.91 213.65C226.731 220.719 232.319 226.676 239.13 230.94C242.385 233.091 246.124 234.397 250.01 234.74C252.031 234.946 254.066 234.516 255.83 233.51C257.466 232.323 258.765 230.731 259.6 228.89C260.613 226.805 261.311 224.58 261.67 222.29C262.119 219.699 262.383 217.079 262.46 214.45C262.46 214.35 262.61 214.37 262.6 214.45C262.53 216.94 262.66 219.45 262.4 221.91C262.216 224.097 261.753 226.251 261.02 228.32C260.317 230.278 259.206 232.064 257.76 233.56C256.24 235.03 254.241 235.903 252.13 236.02C247.99 236.221 243.883 235.198 240.32 233.08C236.714 231.074 233.442 228.52 230.62 225.51C227.36 222.038 224.685 218.059 222.7 213.73C222.687 213.715 222.678 213.698 222.673 213.679C222.669 213.66 222.669 213.641 222.674 213.622C222.678 213.603 222.687 213.586 222.7 213.571C222.713 213.556 222.729 213.545 222.747 213.538C222.765 213.531 222.785 213.529 222.804 213.531C222.823 213.534 222.842 213.541 222.858 213.552C222.874 213.562 222.887 213.577 222.896 213.594C222.905 213.611 222.91 213.63 222.91 213.65Z" fill="#263238"/>
<path d="M253.43 229.22C245.73 231.37 231.91 220.03 226.25 210.61C225.87 209.96 226.6 202.97 227.09 194.42C227.36 189.23 227.55 183.42 227.34 178.16C227.29 177.08 260.83 184.89 260.83 184.89C260.83 184.89 258.01 196.1 258.44 205.32C258.477 206.048 258.581 206.771 258.75 207.48C258.75 207.58 258.8 207.7 258.82 207.84C259.65 211.94 260.87 227.14 253.43 229.22Z" fill="#AD6359"/>
<path d="M255.42 208.15C256.557 208.141 257.691 208.037 258.81 207.84C258.798 207.719 258.778 207.599 258.75 207.48C258.576 206.772 258.472 206.049 258.44 205.32C258.02 196.11 260.82 184.89 260.82 184.89C260.82 184.89 233.6 178.55 228.24 178.08C229.51 184.15 235.84 208.51 255.42 208.15Z" fill="#263238"/>
<path d="M229.75 132.14C223.75 142.88 222.57 177.42 229.13 186.61C238.65 199.93 257.84 205.19 270.07 192.92C281.92 181 282.65 136 275 127.27C263.68 114.42 238.64 116.28 229.75 132.14Z" fill="#AD6359"/>
<path d="M269.46 135.86C268.044 137.583 266.211 138.915 264.135 139.73C262.06 140.546 259.81 140.818 257.6 140.52C253.22 139.89 248.83 136.96 247.19 132.75C247.176 132.729 247.155 132.713 247.131 132.706C247.107 132.698 247.081 132.699 247.057 132.709C247.034 132.718 247.014 132.735 247.002 132.757C246.99 132.779 246.986 132.805 246.99 132.83C248.75 137.32 252.49 140.98 257.44 141.57C259.788 141.806 262.156 141.423 264.309 140.458C266.462 139.493 268.324 137.98 269.71 136.07C269.83 135.9 269.59 135.7 269.46 135.86Z" fill="#263238"/>
<path d="M256.47 107.88C251.03 106.42 245.07 109.04 241.85 113.51C239.994 116.208 238.852 119.332 238.53 122.59C238.537 122.612 238.551 122.632 238.57 122.646C238.589 122.66 238.612 122.667 238.635 122.667C238.658 122.667 238.681 122.66 238.7 122.646C238.719 122.632 238.733 122.612 238.74 122.59C239.67 117.46 242.88 112.27 247.65 109.93C249.822 108.773 252.3 108.323 254.74 108.642C257.18 108.961 259.459 110.034 261.26 111.71C263.251 113.584 264.542 116.082 264.92 118.79C264.936 118.845 264.971 118.892 265.019 118.923C265.067 118.954 265.124 118.967 265.181 118.96C265.237 118.953 265.289 118.926 265.328 118.884C265.366 118.841 265.388 118.787 265.39 118.73C265.197 116.225 264.237 113.839 262.641 111.898C261.045 109.957 258.891 108.554 256.47 107.88Z" fill="#263238"/>
<path d="M297.36 120.43C296.129 116.911 293.687 113.944 290.47 112.06C286.02 109.42 281.06 109.92 276.14 110.51C276.118 110.517 276.098 110.531 276.084 110.55C276.07 110.569 276.063 110.591 276.063 110.615C276.063 110.638 276.07 110.661 276.084 110.68C276.098 110.699 276.118 110.713 276.14 110.72C280.33 110.23 284.61 109.97 288.51 111.88C291.736 113.434 294.325 116.056 295.84 119.3C297.291 122.639 297.491 126.388 296.404 129.863C295.317 133.337 293.015 136.304 289.92 138.22C288.108 139.277 286.099 139.952 284.016 140.203C281.933 140.454 279.821 140.276 277.81 139.68C277.66 139.68 277.54 139.87 277.71 139.92C280.431 140.839 283.355 140.982 286.153 140.333C288.951 139.684 291.513 138.268 293.551 136.244C295.589 134.22 297.023 131.669 297.693 128.875C298.362 126.082 298.24 123.158 297.34 120.43H297.36Z" fill="#263238"/>
<path d="M227.81 136.78C227.81 136.78 228.41 126.23 231.14 123C233.87 119.77 239.91 119 239.91 119C239.91 119 243.43 110.07 251.91 109.47C259.55 108.93 264.73 115.67 264.73 115.67C264.73 115.67 275.29 105.16 287.38 111.11C298.86 116.76 297.38 134.23 286.33 139.83C278.53 143.75 267.78 136.96 267.78 136.96C266.78 137.11 256.35 143.59 248.29 134.33C248.29 134.33 241.14 139.93 237.01 136.02C237 136 231.54 138.66 227.81 136.78Z" fill="#263238"/>
<path opacity="0.2" d="M236.45 124.55C236.08 129.77 234.88 144.63 232.98 147.89C231.08 151.15 226.55 159.68 224.71 160.28C224.91 149.05 226.71 137.56 229.71 132.14C231.399 129.165 233.696 126.579 236.45 124.55Z" fill="#263238"/>
<path d="M229.52 160.09C229.52 160.09 224.1 147.82 218.67 149.55C213.24 151.28 215.84 168.03 221.17 171.3C221.826 171.76 222.568 172.085 223.352 172.254C224.135 172.423 224.945 172.433 225.733 172.284C226.52 172.135 227.27 171.829 227.938 171.385C228.606 170.942 229.178 170.368 229.62 169.7L229.52 160.09Z" fill="#AD6359"/>
<path d="M219.54 154.33C219.45 154.33 219.4 154.43 219.48 154.48C223.18 156.9 224.57 161.06 225.29 165.23C224.39 163.5 222.92 162.36 220.64 163.39C220.52 163.45 220.64 163.63 220.71 163.63C221.458 163.54 222.215 163.683 222.878 164.042C223.541 164.4 224.076 164.955 224.41 165.63C224.965 166.773 225.391 167.973 225.68 169.21C225.8 169.6 226.48 169.54 226.43 169.1C226.435 169.067 226.435 169.033 226.43 169C227.53 163.91 225 155.93 219.54 154.33Z" fill="#263238"/>
<path d="M253.6 159.5C253.6 159.41 253.41 159.6 253.41 159.7C253.41 162.03 252.99 164.7 250.85 165.39C250.79 165.39 250.79 165.52 250.85 165.52C253.45 165.25 254 161.71 253.6 159.5Z" fill="#263238"/>
<path d="M251.61 157C247.88 156.58 247.3 164.07 250.76 164.46C254.22 164.85 254.74 157.35 251.61 157Z" fill="#263238"/>
<path d="M268.19 160.49C268.19 160.4 268.37 160.61 268.36 160.7C268.1 163.02 268.2 165.7 270.24 166.7C270.31 166.7 270.29 166.84 270.24 166.82C267.68 166.22 267.58 162.64 268.19 160.49Z" fill="#263238"/>
<path d="M270.45 158.22C274.21 158.22 273.92 165.74 270.45 165.73C266.98 165.72 267.3 158.22 270.45 158.22Z" fill="#263238"/>
<path d="M247.88 152.34C248.76 151.76 249.67 151.34 250.6 150.88C251.482 150.218 252.558 149.867 253.66 149.88C254.003 149.957 254.311 150.144 254.537 150.413C254.763 150.683 254.894 151.019 254.91 151.37C254.91 152.87 253.77 153.87 252.53 154.58C251.306 155.337 249.845 155.612 248.43 155.35C248.122 155.265 247.845 155.094 247.629 154.859C247.414 154.623 247.269 154.331 247.212 154.017C247.154 153.703 247.187 153.379 247.305 153.083C247.423 152.786 247.622 152.529 247.88 152.34Z" fill="#263238"/>
<path d="M275.11 155.32C274.337 154.636 273.529 153.991 272.69 153.39C271.935 152.597 270.941 152.073 269.86 151.9C269.508 151.913 269.171 152.041 268.9 152.266C268.629 152.49 268.439 152.797 268.36 153.14C268.12 154.62 269.04 155.8 270.13 156.72C271.195 157.686 272.582 158.22 274.02 158.22C274.348 158.203 274.665 158.09 274.93 157.896C275.196 157.702 275.399 157.435 275.514 157.127C275.63 156.819 275.654 156.484 275.582 156.163C275.51 155.842 275.346 155.549 275.11 155.32Z" fill="#263238"/>
<path d="M254.43 177.64C257.43 176.64 261.21 177.33 263.59 177.8C263.86 177.8 264.14 177.26 264.2 177.02C264.2 176.93 264.4 172.1 264.4 172.1C265.02 172.47 268.21 174.18 268.22 173.25C268.3 165.58 268.39 157.05 266.85 149.4C266.85 149.344 266.828 149.291 266.788 149.251C266.749 149.212 266.696 149.19 266.64 149.19C266.584 149.19 266.531 149.212 266.491 149.251C266.452 149.291 266.43 149.344 266.43 149.4C266.06 156.77 266.99 164.16 266.73 171.56C265.601 170.934 264.389 170.473 263.13 170.19C262.87 170.24 263.19 175.4 263.04 176.19C263.04 176.19 258.46 174.45 254.46 176.62C253.43 177.19 253 178.1 254.43 177.64Z" fill="#263238"/>
<path d="M249.49 180.74C250.01 181.32 250.49 182.09 251.34 182.22C252.197 182.261 253.053 182.118 253.85 181.8C253.867 181.792 253.887 181.79 253.905 181.794C253.924 181.799 253.94 181.811 253.951 181.826C253.962 181.842 253.966 181.861 253.964 181.88C253.963 181.899 253.954 181.917 253.94 181.93C253.576 182.35 253.105 182.665 252.577 182.841C252.049 183.017 251.484 183.048 250.94 182.93C250.478 182.778 250.072 182.493 249.773 182.11C249.474 181.728 249.295 181.264 249.26 180.78C249.24 180.7 249.42 180.66 249.49 180.74Z" fill="#263238"/>
<path d="M239.09 154.16C235.92 154.16 237.62 148.16 238.29 146.09C238.754 143.878 239.022 141.629 239.09 139.37C239.157 141.631 239.435 143.881 239.92 146.09C240.58 148.17 242.28 154.16 239.09 154.16Z" fill="white"/>
<path d="M278.77 170.36C279.02 167.61 279.21 164.87 279.33 162.12C279.45 159.37 279.54 156.63 279.52 153.88C279.5 151.13 279.46 148.4 279.33 145.65C279.33 144.28 279.19 142.91 279.08 141.54C278.97 140.17 278.84 138.79 278.77 137.41C279.388 140.105 279.832 142.838 280.1 145.59C280.39 148.347 280.53 151.118 280.52 153.89C280.52 156.659 280.38 159.425 280.1 162.18C279.95 163.55 279.78 164.92 279.58 166.29C279.38 167.66 279.11 169 278.77 170.36Z" fill="#263238"/>
<path d="M217.78 451.47C217.85 451.88 217.93 452.29 218.01 452.71C217.94 452.3 217.86 451.88 217.79 451.47H217.78Z" fill="#EBEBEB"/>
<path d="M221.467 129.551C225.067 124.22 227.019 117.944 227.08 111.507C227.08 88.585 201.982 70 171.034 70C140.085 70 115 88.585 115 111.507C115 134.428 140.085 153 171.034 153C186.035 153 199.642 148.65 209.687 141.519L229 146.436L221.467 129.551Z" fill="white"/>
<path d="M221.919 129.607C225.206 124.487 227.027 118.562 227.184 112.477C227.261 106.432 225.617 100.491 222.446 95.3467C219.276 90.2485 215.097 85.8538 210.167 82.4332C205.255 78.9995 199.85 76.3336 194.137 74.527C188.429 72.6975 182.512 71.5994 176.528 71.2591C170.556 70.8868 164.561 71.2229 158.669 72.2605C152.785 73.2661 147.067 75.0796 141.678 77.6499C136.309 80.1687 131.413 83.5918 127.201 87.7699C122.992 91.8919 119.852 96.9807 118.054 102.594C116.297 108.189 116.22 114.178 117.831 119.817C119.507 125.49 122.553 130.663 126.701 134.878C130.875 139.114 135.745 142.599 141.099 145.182C146.478 147.77 152.179 149.622 158.05 150.69C163.937 151.811 169.938 152.219 175.922 151.903C187.982 151.448 199.686 147.688 209.759 141.032L209.996 140.86L210.259 140.939L229.513 146.131L229.145 146.566L221.919 129.607ZM221.919 129.607L229.724 146.329L230 146.922L229.355 146.764L209.956 142.125L210.456 142.033C205.449 145.61 199.923 148.397 194.071 150.295C188.235 152.23 182.176 153.412 176.041 153.813C169.884 154.244 163.698 153.929 157.616 152.878C151.53 151.802 145.619 149.9 140.046 147.225C134.423 144.559 129.302 140.939 124.911 136.525C120.452 132.069 117.153 126.585 115.304 120.554C113.513 114.443 113.568 107.937 115.462 101.856C117.419 95.8601 120.807 90.4323 125.332 86.0437C129.809 81.699 135 78.1596 140.678 75.5811C146.278 72.9543 152.212 71.1099 158.313 70.0995C170.503 67.9772 183.03 68.9374 194.755 72.893C200.603 74.8492 206.116 77.6935 211.101 81.3263C216.132 84.9292 220.348 89.554 223.472 94.8987C226.596 100.226 228.115 106.344 227.846 112.516C227.578 118.688 225.533 124.651 221.959 129.686L221.919 129.607Z" fill="#263238"/>
<path d="M152.306 82.8055C152.301 82.5991 152.359 82.3943 152.474 82.2031C152.59 82.012 152.761 81.8383 152.978 81.6923C153.195 81.5464 153.453 81.4312 153.737 81.3535C154.021 81.2758 154.325 81.2371 154.631 81.2399C154.941 81.2372 155.248 81.2756 155.535 81.3528C155.823 81.43 156.085 81.5446 156.306 81.69C156.528 81.8354 156.705 82.0087 156.827 82.2001C156.949 82.3915 157.014 82.5972 157.018 82.8055V99.6813C157.018 99.8913 156.956 100.099 156.836 100.293C156.715 100.487 156.539 100.662 156.317 100.81C156.095 100.958 155.832 101.074 155.542 101.152C155.253 101.231 154.943 101.27 154.631 101.267C154.323 101.267 154.019 101.226 153.734 101.146C153.45 101.066 153.192 100.949 152.976 100.802C152.76 100.654 152.589 100.479 152.474 100.287C152.359 100.094 152.302 99.8886 152.306 99.6813V82.8055Z" fill="#6F972D"/>
<path d="M160.094 88.0551C160.8 87.9585 161.438 87.6376 161.882 87.156C162.326 86.6744 162.544 86.0669 162.493 85.4536C161.963 85.3607 161.485 85.1164 161.137 84.7604C160.789 84.4043 160.59 83.9574 160.574 83.4921V83.1824C160.564 82.9234 160.616 82.6654 160.727 82.4246C160.838 82.1837 161.006 81.9653 161.22 81.783C161.435 81.6008 161.69 81.4586 161.971 81.3654C162.252 81.2722 162.552 81.2301 162.853 81.2416C164.341 81.2416 165.253 82.2327 165.253 83.8018V84.0909C165.357 85.6016 164.762 87.0865 163.597 88.2202C162.753 88.9558 161.628 89.4033 160.43 89.4797C160.296 89.4947 160.159 89.4844 160.029 89.4494C159.9 89.4144 159.781 89.3556 159.68 89.277C159.58 89.1984 159.5 89.102 159.448 88.9944C159.395 88.8868 159.37 88.7706 159.374 88.6538C159.421 88.5077 159.513 88.3751 159.639 88.2698C159.766 88.1644 159.923 88.0903 160.094 88.0551Z" fill="#6F972D"/>
<path d="M185.292 82.8055V99.6814C185.281 100.102 185.102 100.503 184.792 100.798C184.482 101.094 184.066 101.262 183.63 101.267C183.416 101.267 183.203 101.226 183.005 101.146C182.807 101.066 182.628 100.949 182.477 100.802C182.326 100.654 182.208 100.479 182.127 100.287C182.047 100.094 182.007 99.8887 182.01 99.6814V87.6446L177.803 93.3784C177.653 93.5824 177.454 93.7483 177.223 93.8616C176.992 93.9749 176.736 94.0324 176.477 94.029C176.213 94.0306 175.952 93.9726 175.714 93.8597C175.477 93.7468 175.27 93.582 175.11 93.3784L170.902 87.6446V99.6814C170.902 100.102 170.73 100.505 170.422 100.803C170.114 101.1 169.697 101.267 169.262 101.267C168.826 101.267 168.409 101.1 168.101 100.803C167.793 100.505 167.621 100.102 167.621 99.6814V82.8055C167.626 82.3919 167.798 81.9967 168.101 81.7043C168.404 81.4118 168.813 81.2451 169.24 81.2399C169.493 81.2413 169.741 81.3012 169.964 81.4144C170.187 81.5276 170.379 81.6909 170.524 81.8905L176.414 89.7998L182.305 81.8905C182.459 81.6861 182.662 81.5204 182.896 81.4072C183.13 81.294 183.389 81.2366 183.651 81.2399C184.079 81.2499 184.488 81.4175 184.793 81.7084C185.097 81.9993 185.276 82.3917 185.292 82.8055Z" fill="#6F972D"/>
<path d="M126.683 127.078C126.928 126.797 127.272 126.62 127.645 126.584C128.017 126.547 128.39 126.653 128.686 126.88C130.196 128.159 132.089 128.911 134.073 129.021C135.328 129.051 136.56 128.69 137.597 127.99C137.948 127.782 138.242 127.493 138.455 127.148C138.668 126.803 138.793 126.411 138.819 126.007C138.818 125.692 138.728 125.383 138.558 125.115C138.342 124.781 138.055 124.497 137.717 124.283C136.523 123.612 135.212 123.168 133.853 122.974C132.604 122.757 131.387 122.39 130.228 121.883C129.158 121.424 128.247 120.666 127.605 119.702C127.173 119.019 126.944 118.229 126.944 117.422C126.971 116.613 127.19 115.822 127.583 115.113C127.976 114.403 128.532 113.795 129.207 113.338C130.637 112.364 132.337 111.852 134.073 111.871C136.3 111.984 138.442 112.758 140.221 114.091C140.531 114.308 140.746 114.634 140.821 115.003C140.895 115.372 140.824 115.756 140.621 116.074C140.522 116.236 140.389 116.377 140.233 116.486C140.076 116.596 139.899 116.673 139.711 116.712C139.523 116.751 139.329 116.751 139.142 116.713C138.954 116.675 138.776 116.599 138.619 116.49C137.318 115.459 135.734 114.837 134.073 114.706C132.95 114.691 131.851 115.024 130.929 115.658C130.618 115.843 130.357 116.101 130.168 116.408C129.98 116.715 129.87 117.063 129.847 117.422C129.833 117.694 129.902 117.964 130.048 118.196C130.255 118.483 130.513 118.732 130.809 118.929C131.894 119.557 133.09 119.975 134.333 120.158C135.673 120.384 136.978 120.777 138.218 121.328C139.361 121.823 140.34 122.627 141.042 123.648C141.479 124.359 141.708 125.176 141.702 126.007C141.685 126.857 141.463 127.691 141.056 128.439C140.648 129.187 140.067 129.829 139.359 130.31C137.839 131.375 136.015 131.931 134.153 131.896C131.507 131.783 128.972 130.807 126.944 129.12C126.643 128.879 126.448 128.532 126.399 128.151C126.351 127.771 126.452 127.386 126.683 127.078Z" fill="#6F972D"/>
<path d="M162.482 114.836C164.265 116.738 165.261 119.256 165.264 121.874C165.273 124.495 164.276 127.017 162.482 128.912C161.649 129.842 160.633 130.587 159.5 131.101C158.367 131.615 157.141 131.886 155.899 131.898C154.629 131.894 153.374 131.627 152.212 131.113C151.049 130.6 150.003 129.851 149.139 128.912C147.363 127.01 146.387 124.487 146.415 121.874C146.397 119.263 147.372 116.744 149.139 114.836C150.004 113.9 151.05 113.154 152.213 112.644C153.376 112.134 154.631 111.87 155.899 111.87C157.14 111.878 158.365 112.146 159.499 112.656C160.632 113.167 161.648 113.909 162.482 114.836ZM162.11 121.874C162.115 120.075 161.451 118.339 160.248 117.01C159.701 116.392 159.03 115.897 158.281 115.557C157.532 115.216 156.72 115.038 155.899 115.033C155.059 115.031 154.227 115.206 153.458 115.546C152.689 115.887 151.999 116.385 151.431 117.01C150.186 118.319 149.485 120.06 149.472 121.874C149.474 123.685 150.177 125.423 151.431 126.718C151.983 127.349 152.661 127.854 153.421 128.201C154.182 128.547 155.006 128.726 155.84 128.726C156.674 128.726 157.498 128.547 158.258 128.201C159.018 127.854 159.697 127.349 160.248 126.718C161.437 125.428 162.101 123.734 162.11 121.973V121.874Z" fill="#6F972D"/>
<path d="M182.85 129.681C182.919 129.882 182.947 130.093 182.932 130.304C182.916 130.514 182.858 130.72 182.761 130.909C182.664 131.098 182.529 131.266 182.364 131.404C182.2 131.543 182.008 131.648 181.802 131.715C181.586 131.737 181.368 131.737 181.152 131.715C180.743 131.718 180.342 131.604 179.998 131.389C179.602 131.14 179.277 130.797 179.054 130.393C178.581 129.309 178.372 128.132 178.446 126.957C178.441 126.527 178.318 126.106 178.09 125.737C177.862 125.401 177.561 125.116 177.209 124.903C176.697 124.591 176.138 124.358 175.552 124.212H172.071V130.312C172.071 130.522 172.028 130.73 171.944 130.923C171.861 131.117 171.738 131.293 171.584 131.44C171.43 131.588 171.247 131.704 171.046 131.783C170.845 131.861 170.63 131.9 170.414 131.898C170.2 131.898 169.988 131.856 169.791 131.777C169.594 131.697 169.415 131.579 169.264 131.432C169.114 131.284 168.996 131.109 168.916 130.917C168.836 130.725 168.796 130.519 168.799 130.312V113.436C168.796 113.229 168.836 113.025 168.916 112.834C168.996 112.642 169.115 112.469 169.266 112.323C169.416 112.177 169.595 112.062 169.792 111.984C169.99 111.906 170.201 111.868 170.414 111.87H175.699C177.367 111.87 178.968 112.513 180.148 113.657C181.328 114.801 181.991 116.352 181.991 117.97C181.987 118.869 181.778 119.757 181.379 120.569C180.981 121.381 180.401 122.097 179.684 122.667C180.083 122.963 180.43 123.32 180.711 123.724C181.354 124.634 181.697 125.712 181.697 126.815C181.668 127.379 181.704 127.945 181.802 128.502C182.068 128.593 182.304 128.75 182.488 128.956C182.672 129.163 182.797 129.413 182.85 129.681ZM178.656 118.173C178.659 117.784 178.582 117.399 178.431 117.039C178.279 116.679 178.055 116.351 177.773 116.075C177.49 115.8 177.154 115.581 176.784 115.431C176.413 115.282 176.016 115.205 175.615 115.205H171.987V121.101H175.615C176.018 121.109 176.418 121.04 176.793 120.896C177.168 120.753 177.51 120.539 177.799 120.267C178.087 119.994 178.317 119.669 178.475 119.309C178.633 118.95 178.716 118.564 178.719 118.173H178.656Z" fill="#6F972D"/>
<path d="M200.522 129.681C200.588 129.88 200.616 130.091 200.605 130.301C200.593 130.512 200.542 130.718 200.454 130.907C200.367 131.096 200.244 131.265 200.094 131.404C199.944 131.543 199.769 131.648 199.58 131.715C199.382 131.736 199.183 131.736 198.985 131.715C198.61 131.718 198.243 131.604 197.928 131.389C197.56 131.146 197.261 130.802 197.063 130.393C196.621 129.311 196.424 128.134 196.487 126.957C196.491 126.525 196.378 126.102 196.16 125.737C195.962 125.392 195.684 125.105 195.353 124.903C194.886 124.588 194.373 124.355 193.835 124.212H190.646V130.312C190.646 130.522 190.606 130.73 190.53 130.923C190.453 131.117 190.341 131.293 190.2 131.44C190.059 131.588 189.891 131.704 189.707 131.783C189.523 131.861 189.326 131.9 189.128 131.898C188.932 131.898 188.738 131.856 188.557 131.777C188.376 131.697 188.212 131.579 188.075 131.432C187.937 131.284 187.829 131.109 187.755 130.917C187.682 130.725 187.646 130.519 187.648 130.312V113.436C187.646 113.23 187.682 113.025 187.756 112.834C187.829 112.642 187.938 112.469 188.076 112.323C188.214 112.177 188.378 112.062 188.559 111.984C188.739 111.906 188.933 111.868 189.128 111.87H193.97C195.166 111.858 196.336 112.239 197.318 112.961C198.301 113.684 199.046 114.712 199.451 115.903C199.857 117.093 199.902 118.388 199.581 119.608C199.26 120.827 198.588 121.91 197.659 122.707C198.025 123.004 198.343 123.361 198.6 123.765C199.183 124.677 199.491 125.754 199.484 126.855C199.461 127.421 199.5 127.987 199.599 128.543C199.832 128.634 200.039 128.787 200.2 128.986C200.361 129.185 200.472 129.424 200.522 129.681ZM196.679 118.173C196.681 117.785 196.611 117.399 196.472 117.039C196.334 116.679 196.129 116.352 195.87 116.076C195.611 115.8 195.303 115.581 194.964 115.431C194.624 115.282 194.26 115.205 193.893 115.205H190.569V121.101H193.893C194.262 121.109 194.629 121.04 194.972 120.896C195.316 120.753 195.629 120.539 195.893 120.267C196.158 119.994 196.369 119.669 196.514 119.31C196.658 118.95 196.734 118.564 196.737 118.173H196.679Z" fill="#6F972D"/>
<path d="M217.985 114.366L212.168 122.549V130.302C212.171 130.512 212.132 130.721 212.054 130.916C211.976 131.111 211.86 131.288 211.713 131.436C211.566 131.585 211.391 131.703 211.199 131.782C211.006 131.861 210.8 131.9 210.593 131.898C210.18 131.887 209.787 131.715 209.497 131.417C209.207 131.12 209.042 130.72 209.037 130.302V122.549L203.26 114.366C203.019 114.032 202.919 113.615 202.982 113.207C203.044 112.798 203.264 112.432 203.594 112.188C203.923 111.943 204.335 111.842 204.738 111.905C205.142 111.968 205.504 112.191 205.745 112.525L210.593 119.255L215.461 112.525C215.58 112.357 215.731 112.215 215.904 112.106C216.078 111.997 216.271 111.924 216.473 111.891C216.675 111.857 216.881 111.865 217.08 111.912C217.278 111.96 217.466 112.046 217.632 112.167C217.798 112.288 217.938 112.441 218.046 112.617C218.153 112.793 218.226 112.988 218.258 113.192C218.291 113.397 218.284 113.605 218.237 113.807C218.19 114.008 218.105 114.198 217.985 114.366Z" fill="#6F972D"/>
</svg>
